<?xml version="1.0" encoding="utf-8"?>
<svg viewBox="0 0 500 500" xmlns="http://www.w3.org/2000/svg">
  <defs>
    <linearGradient gradientUnits="userSpaceOnUse" x1="242.982" y1="68.23" x2="242.982" y2="414.661" id="gradient-0" spreadMethod="pad" gradientTransform="matrix(0.695964, 0.718078, -0.545278, 0.528487, 223.749758, -76.382575)">
      <stop offset="0" style="stop-color: rgb(99, 209, 231);"/>
      <stop offset="1" style="stop-color: rgb(47, 90, 190);"/>
    </linearGradient>
    <linearGradient gradientUnits="userSpaceOnUse" x1="260.244" y1="216.652" x2="260.244" y2="243.988" id="gradient-1" gradientTransform="matrix(-0.68326, -0.730176, 7.701915, -7.207064, -1336.209928, 2077.152685)">
      <stop offset="0" style="stop-color: rgb(47, 90, 190);"/>
      <stop offset="1" style="stop-color: rgb(99, 209, 231);"/>
    </linearGradient>
  </defs>
  <path d="M 217.356 370.97 C 217.422 370.197 217.524 369.423 217.559 368.65 C 218.332 356.825 218.129 342.853 215.301 329.115 L 215.301 329.013 C 207.926 336.083 200.082 343.325 191.594 350.868 C 191.325 332.853 186.036 318.271 176.102 308.337 L 176.102 308.302 C 176.067 308.302 176.067 308.302 176.067 308.302 C 166.137 298.368 151.555 293.079 133.54 292.814 C 141.082 284.325 148.321 276.482 155.395 269.107 L 155.293 269.107 C 141.551 266.279 127.579 266.04 115.727 266.849 C 114.985 266.88 114.207 266.982 113.434 267.052 C 148.961 231.556 179.403 233.005 190.247 235.025 C 277.297 155.923 318.278 166.126 318.278 166.126 C 318.278 166.126 328.481 207.111 249.379 294.161 C 251.399 305.001 252.848 335.447 217.356 370.97 Z M 355.723 109.755 C 291.438 54.529 195.063 54.361 130.641 109.419 C 66.692 164.04 53.125 253.243 89.864 322.615 C 101.008 343.697 130.809 345.142 144.582 325.646 L 144.618 325.611 L 127.207 308.236 C 127.243 308.2 127.207 308.2 127.243 308.2 C 138.829 307.29 155.36 308.236 165.766 318.642 C 176.172 329.044 177.114 345.579 176.204 357.165 C 176.204 357.165 176.172 357.165 176.172 357.197 L 158.793 339.79 C 139.129 353.697 140.946 383.599 162.262 394.779 C 227.661 429.197 310.602 418.923 365.524 364.001 C 436.239 293.282 432.973 176.197 355.723 109.755" fill-rule="nonzero" style="fill-rule: nonzero; fill: url(#gradient-0); paint-order: fill;" transform="matrix(0.999816, -0.019186, 0.019186, 0.999816, -4.58765, 4.706286)"/>
  <path d="M 258.854 244.638 C 253.534 249.958 244.881 249.958 239.526 244.638 C 234.206 239.283 234.206 230.63 239.526 225.306 C 244.881 219.954 253.534 219.954 258.854 225.306 C 264.209 230.63 264.209 239.283 258.854 244.638" fill-opacity="1" fill-rule="nonzero" transform="matrix(0.999816, -0.019186, 0.019186, 0.999816, -4.46209, 4.82448)" style="fill: url(#gradient-1);"/>
</svg>